<svg width="161" height="37" viewBox="0 0 161 37" fill="none" xmlns="http://www.w3.org/2000/svg">
<path d="M37.8316 18.5322H18.9142L15.9951 8.22188L18.9142 0H34.1125C36.1658 0 37.8285 1.63213 37.8285 3.6409V18.5322H37.8316Z" fill="#F39200"/>
<path d="M18.9143 18.5322L9.43529 22.8039L0 19.3436V3.6409C0 1.63213 1.66579 0 3.71599 0H18.9143C18.9143 0 16.286 5.23934 18.9143 18.5322Z" fill="#36A9E1"/>
<path d="M18.9143 36.9999H3.71599C1.66579 36.9999 0 35.3678 0 33.356V19.3436C0 19.3436 8.91337 21.3799 18.9143 18.4678C28.9153 15.5557 24.7524 28.1993 24.7524 28.1993L18.9143 36.9999Z" fill="#E94E1B"/>
<path d="M34.116 37.0001H18.9146C22.8899 26.1202 18.9146 18.4679 18.9146 18.4679C18.9146 18.4679 24.3995 16.796 29.4062 16.3979C34.4129 15.9998 37.8289 16.2356 37.8289 16.2356V33.3622C37.832 35.3679 36.1662 37.0001 34.116 37.0001Z" fill="#3AAA35"/>
<path d="M24.9867 24.2155C25.2836 21.7076 27.7276 19.9193 30.2778 20.6603C32.6812 21.3585 33.775 23.9093 33.825 26.1691C33.875 28.2912 33.2781 30.4929 32.0998 32.2781C31.4435 33.2764 30.6935 33.9256 29.5465 34.3512C28.3745 34.786 25.6148 34.8228 26.4055 32.6425C26.6556 31.9474 25.7555 31.4177 25.3961 32.0638C24.8179 33.1141 25.0773 34.3328 26.043 35.0892C27.1587 35.965 28.7808 35.8119 30.0528 35.3923C33.325 34.3083 34.7407 30.2387 34.9689 27.1705C35.2033 24.0318 33.825 20.3174 30.3747 19.4998C27.0837 18.7189 24.196 21.0431 23.8209 24.2094C23.7303 24.9443 24.8992 24.9382 24.9867 24.2155Z" fill="white"/>
<path d="M26.0116 30.8788C26.5366 30.692 26.9585 30.444 27.2179 29.9387C27.3586 29.6662 27.2929 29.2834 27.4148 29.0476C27.6711 28.5638 27.8149 28.7445 28.3399 28.6036C29.3088 28.3433 30.062 27.6942 29.4838 26.6561C29.3275 26.3744 29.0744 26.1968 28.8462 25.9763C28.3462 25.4894 26.846 23.6644 28.8743 23.3765C30.0995 23.202 31.0777 24.6565 31.2996 25.6364C31.7527 27.6298 30.8558 30.6614 29.2025 31.926C28.6118 32.3792 29.4431 33.1815 30.0276 32.7345C32.8497 30.5787 34.2374 22.4977 29.0619 22.2466C27.0304 22.1455 26.2585 24.0257 27.0898 25.6517C27.2336 25.9304 28.1649 26.7571 28.1743 26.9164C28.2212 27.7003 27.146 27.293 26.7335 27.5012C25.7959 27.9728 26.6648 29.4365 25.699 29.7795C24.999 30.0244 25.3021 31.1299 26.0116 30.8788Z" fill="white"/>
<path d="M5.51615 5.69262C5.21299 7.41049 4.46605 8.93545 3.73785 10.5155C3.17842 11.7281 2.40022 13.0479 2.6815 14.4259C3.16904 16.8205 5.85993 17.2278 7.70698 16.0427C8.33517 15.6416 7.75074 14.6494 7.1163 15.0536C6.00369 15.7641 4.27853 15.8743 3.84098 14.3126C3.52533 13.1827 4.39104 11.8537 4.84421 10.8707C5.58178 9.27534 6.33185 7.73508 6.63813 5.99578C6.76939 5.27617 5.64428 4.96689 5.51615 5.69262Z" fill="white"/>
<path d="M5.71627 15.2801C7.06015 15.4516 7.98211 16.8204 9.38225 16.9367C11.0168 17.0745 12.0544 15.0964 13.6264 15.372C14.3609 15.5006 14.6765 14.3982 13.9358 14.2696C12.2325 13.9695 11.5918 15.2525 10.0917 15.6414C8.51654 16.0518 7.28517 14.3369 5.71627 14.1379C4.97557 14.043 4.98182 15.1882 5.71627 15.2801Z" fill="white"/>
<path d="M12.1947 2.3028C12.0072 4.4463 12.1353 6.54082 13.0823 8.51284C13.4011 9.17733 14.4074 8.59858 14.0917 7.9341C13.2385 6.15805 13.1979 4.22277 13.3636 2.3028C13.4261 1.56788 12.2572 1.57401 12.1947 2.3028Z" fill="white"/>
<path d="M12.0041 16.0152C13.0511 16.8971 14.6294 17.1421 15.692 16.1193C16.7921 15.0629 16.5327 13.4062 15.6951 12.2947C15.2544 11.7067 14.2418 12.2794 14.6856 12.8734C15.1544 13.495 15.5294 14.3678 15.045 15.0935C14.5262 15.8743 13.4699 15.7488 12.8292 15.2068C12.2635 14.7291 11.4353 15.5344 12.0041 16.0152Z" fill="white"/>
<path d="M2.24389 28.5056C4.36597 26.2396 6.73495 24.4881 10.0134 24.5555C13.0824 24.6167 15.7858 26.1723 17.8392 28.3219C18.3548 28.8608 19.1768 28.0494 18.6642 27.5135C16.3984 25.1434 13.3856 23.4776 10.0134 23.4102C6.42555 23.3428 3.75029 25.2077 1.41881 27.6972C0.909389 28.2392 1.73447 29.0507 2.24389 28.5056Z" fill="white"/>
<path d="M1.59057 28.6801C4.25333 30.7961 7.40676 32.7191 10.9696 32.5935C14.0355 32.4864 16.7889 30.9216 18.5735 28.5147C19.0141 27.9176 18.0015 27.345 17.564 27.936C15.942 30.1224 13.3167 31.4942 10.5383 31.4544C7.46302 31.4115 4.72838 29.709 2.41565 27.8717C1.8406 27.4093 1.00927 28.2147 1.59057 28.6801Z" fill="white"/>
<path d="M11.0416 24.6289C14.5263 25.5751 14.7419 30.2326 11.2853 31.3962C10.579 31.6351 10.8822 32.7405 11.5947 32.4986C16.1139 30.9737 15.9921 24.785 11.351 23.5234C10.6259 23.3274 10.3165 24.4329 11.0416 24.6289Z" fill="white"/>
<path d="M9.36034 24.6289C5.87563 25.5751 5.65999 30.2326 9.11657 31.3962C9.82289 31.6351 8.33837 32.324 8.12585 32.2169C4.31298 30.3306 4.65677 24.7177 9.05406 23.5234C9.77288 23.3274 10.0854 24.4329 9.36034 24.6289Z" fill="white"/>
<path d="M10.0198 29.4028C11.8981 29.4028 11.9012 26.5427 10.0198 26.5427C8.14146 26.5427 8.13833 29.4028 10.0198 29.4028Z" fill="white"/>
<path d="M19.7954 10.197C21.8612 9.12216 25.0052 4.76166 27.5023 6.81942C27.7524 7.02459 28.0774 7.04296 28.3274 6.81942C30.7683 4.62387 33.7217 9.00274 35.7188 10.0653C35.8156 9.71009 35.9156 9.35488 36.0125 8.99967C34.3342 8.93231 32.7872 8.27395 31.1308 8.07491C30.5901 8.0106 30.0495 7.98917 29.5088 8.0596C28.94 8.13615 28.2993 8.51585 27.7305 8.44849C27.2929 8.39643 26.871 8.10246 26.4179 8.03204C25.7459 7.92486 25.0365 7.98917 24.3614 8.03204C23.7114 8.07491 23.0519 8.13615 22.4175 8.28619C21.4986 8.50361 20.6892 8.98436 19.7328 9.06398C18.989 9.12522 18.9828 10.2705 19.7328 10.2092C21.1017 10.0959 22.2987 9.40388 23.6676 9.24158C24.4083 9.15278 25.2428 9.06092 25.9959 9.13135C26.6585 9.19259 27.2211 9.60292 27.8836 9.61517C28.3055 9.62435 28.6712 9.43144 29.0681 9.32426C29.9588 9.08541 30.8527 9.15584 31.7496 9.33345C33.1873 9.61517 34.5374 10.0867 36.0125 10.148C36.5907 10.1725 36.8095 9.34876 36.3063 9.08235C33.7342 7.71663 30.7495 3.09279 27.4992 6.01714C27.7742 6.01714 28.0493 6.01714 28.3243 6.01714C24.9583 3.2459 21.8956 7.81156 19.2015 9.21402C18.5421 9.55392 19.1328 10.543 19.7954 10.197Z" fill="white"/>
<path d="M19.4265 10.4175C20.6672 11.3576 21.9298 12.3038 23.4081 12.8581C25.002 13.4552 26.7272 13.5562 28.418 13.5287C31.3558 13.4797 34.2685 12.5029 36.2437 10.2522C36.7344 9.69487 35.9093 8.87728 35.4155 9.44072C33.4966 11.624 30.7276 12.3896 27.896 12.3865C24.7239 12.3804 22.4736 11.2841 20.0172 9.42541C19.4202 8.97527 18.8358 9.97047 19.4265 10.4175Z" fill="white"/>
<path d="M45.2793 9.2783C45.2793 8.90165 45.4137 8.58013 45.6856 8.31678C45.9575 8.05037 46.2825 7.9187 46.6669 7.9187C47.0514 7.9187 47.3795 8.05037 47.6483 8.31678C47.9202 8.58319 48.0546 8.90165 48.0546 9.2783V25.7221H54.6553C55.0397 25.7221 55.3679 25.8537 55.6366 26.1202C55.9085 26.3866 56.0429 26.705 56.0429 27.0817C56.0429 27.4583 55.9085 27.7798 55.6366 28.0432C55.3647 28.3096 55.0397 28.4413 54.6553 28.4413H46.6669C46.4669 28.4413 46.2825 28.4076 46.1169 28.3372C45.9512 28.2698 45.8043 28.1718 45.6793 28.0493C45.5512 27.9268 45.4543 27.7829 45.3856 27.6206C45.3168 27.4583 45.2824 27.2776 45.2824 27.0817V9.2783H45.2793Z" fill="white"/>
<path d="M69.9316 21.2575C69.9316 23.2571 69.2158 24.9505 67.7845 26.3377C66.3343 27.7401 64.6091 28.4414 62.5996 28.4414C60.5744 28.4414 58.8461 27.7401 57.4147 26.3377C55.9833 24.9352 55.2676 23.2418 55.2676 21.2575C55.2676 19.2733 55.9833 17.5799 57.4147 16.1774C58.8461 14.775 60.5744 14.0737 62.5996 14.0737C64.606 14.0737 66.3343 14.775 67.7845 16.1774C68.5002 16.8787 69.0346 17.6534 69.3877 18.4985C69.7409 19.3468 69.9222 20.2654 69.9316 21.2575ZM62.5996 16.7562C61.9526 16.7562 61.3526 16.8756 60.7931 17.1144C60.2337 17.3533 59.7493 17.6779 59.3399 18.0821C58.9304 18.4894 58.6054 18.964 58.3648 19.5121C58.1241 20.0602 58.0054 20.642 58.0054 21.2575C58.0054 21.873 58.1241 22.4548 58.3648 23.003C58.6054 23.5511 58.9304 24.0257 59.3399 24.433C59.7493 24.8403 60.2337 25.1618 60.7931 25.4006C61.3526 25.6395 61.9526 25.7589 62.5996 25.7589C63.2371 25.7589 63.8341 25.6395 64.3935 25.4006C64.9529 25.1618 65.4374 24.8372 65.853 24.4269C66.2656 24.0165 66.5937 23.5388 66.8344 22.9968C67.075 22.4548 67.1938 21.873 67.1938 21.2575C67.1938 20.642 67.075 20.0633 66.8344 19.5182C66.5937 18.9762 66.2656 18.4985 65.853 18.0882C65.4374 17.6779 64.9498 17.3533 64.3935 17.1144C63.8341 16.8756 63.2371 16.7562 62.5996 16.7562Z" fill="white"/>
<path d="M83.58 26.8612C82.2705 27.9115 80.7391 28.4382 78.9858 28.4382C76.9606 28.4382 75.2323 27.7369 73.8009 26.3345C72.3695 24.932 71.6538 23.2386 71.6538 21.2544C71.6538 19.2701 72.3695 17.5767 73.8009 16.1743C75.2323 14.7718 76.9606 14.0706 78.9858 14.0706C80.9922 14.0706 82.7205 14.7718 84.1707 16.1743C85.602 17.5767 86.3177 19.2701 86.3177 21.2544V28.3861C86.3177 29.0016 86.2208 29.5834 86.0302 30.1315C85.8396 30.6797 85.5708 31.1819 85.2301 31.6381C84.8895 32.0944 84.4894 32.5078 84.0269 32.8752C83.5643 33.2427 83.0643 33.552 82.5267 33.8061C81.9892 34.0572 81.4298 34.2532 80.8453 34.391C80.2609 34.5288 79.6765 34.5962 79.092 34.5962C78.392 34.5962 77.7075 34.5074 77.0356 34.3328C76.3636 34.1583 75.7261 33.898 75.1229 33.5581C74.5197 33.2151 73.9697 32.7926 73.4665 32.2873C72.9633 31.782 72.5383 31.2186 72.1914 30.5939C72.0507 30.398 71.982 30.1591 71.982 29.8743C71.982 29.4885 72.1132 29.17 72.3758 28.9189C72.6383 28.6678 72.9633 28.5392 73.3571 28.5392C73.6196 28.5392 73.8353 28.5974 74.004 28.7199C74.1728 28.8393 74.4072 29.1057 74.7041 29.5161C75.001 29.9264 75.2635 30.2387 75.4886 30.4531C76.4824 31.4268 77.6825 31.9168 79.0889 31.9168C80.5015 31.9168 81.6985 31.4391 82.6768 30.4806C83.2799 29.761 83.58 29.0659 83.58 28.3892V26.8612ZM78.9826 16.7561C78.3357 16.7561 77.7356 16.8755 77.1762 17.1143C76.6168 17.3532 76.1324 17.6778 75.723 18.082C75.3135 18.4892 74.9885 18.9639 74.7479 19.512C74.5072 20.0601 74.3884 20.6419 74.3884 21.2574C74.3884 21.8729 74.5072 22.4547 74.7479 23.0029C74.9885 23.551 75.3135 24.0256 75.723 24.4329C76.1324 24.8401 76.6168 25.1617 77.1762 25.4005C77.7356 25.6394 78.3357 25.7588 78.9826 25.7588C79.6202 25.7588 80.2171 25.6394 80.7766 25.4005C81.336 25.1617 81.8204 24.8371 82.2361 24.4268C82.6518 24.0164 82.9768 23.5387 83.2174 22.9967C83.4581 22.4547 83.5768 21.8729 83.5768 21.2574C83.5768 20.6419 83.4581 20.0632 83.2174 19.5181C82.9768 18.9761 82.6486 18.4984 82.2361 18.0881C81.8204 17.6778 81.336 17.3532 80.7766 17.1143C80.2203 16.8755 79.6202 16.7561 78.9826 16.7561Z" fill="white"/>
<path d="M102.772 21.2575C102.772 23.2571 102.057 24.9505 100.625 26.3377C99.1751 27.7401 97.4499 28.4414 95.4404 28.4414C93.4152 28.4414 91.6869 27.7401 90.2555 26.3377C88.8241 24.9352 88.1084 23.2418 88.1084 21.2575C88.1084 19.2733 88.8241 17.5799 90.2555 16.1774C91.6869 14.775 93.4152 14.0737 95.4404 14.0737C97.4468 14.0737 99.1751 14.775 100.625 16.1774C101.341 16.8787 101.875 17.6534 102.229 18.4985C102.585 19.3468 102.766 20.2654 102.772 21.2575ZM95.4435 16.7562C94.7965 16.7562 94.1965 16.8756 93.6371 17.1144C93.0776 17.3533 92.5932 17.6779 92.1838 18.0821C91.7744 18.4894 91.4493 18.964 91.2087 19.5121C90.968 20.0602 90.8493 20.642 90.8493 21.2575C90.8493 21.873 90.968 22.4548 91.2087 23.003C91.4493 23.5511 91.7744 24.0257 92.1838 24.433C92.5932 24.8403 93.0776 25.1618 93.6371 25.4006C94.1965 25.6395 94.7965 25.7589 95.4435 25.7589C96.081 25.7589 96.678 25.6395 97.2374 25.4006C97.7968 25.1618 98.2813 24.8372 98.6969 24.4269C99.1126 24.0165 99.4376 23.5388 99.6783 22.9968C99.9189 22.4548 100.038 21.873 100.038 21.2575C100.038 20.642 99.9189 20.0633 99.6783 19.5182C99.4376 18.9762 99.1095 18.4985 98.6969 18.0882C98.2813 17.6779 97.7968 17.3533 97.2374 17.1144C96.678 16.8756 96.081 16.7562 95.4435 16.7562Z" fill="white"/>
<path d="M130.056 24.5553C130.45 24.5553 130.775 24.6808 131.031 24.935C131.287 25.1861 131.419 25.5046 131.419 25.8904C131.419 26.267 131.287 26.5886 131.025 26.8519C129.672 28.0155 128.075 28.5973 126.234 28.5973C124.209 28.5973 122.48 27.8961 121.049 26.4936C119.618 25.0912 118.902 23.3978 118.902 21.4135C118.902 19.4293 119.618 17.7359 121.049 16.3334C122.48 14.931 124.209 14.2297 126.234 14.2297C128.24 14.2297 129.969 14.931 131.419 16.3334C132.134 17.0255 132.672 17.7971 133.028 18.6484C133.385 19.4997 133.566 20.4214 133.566 21.4135C133.566 21.7994 133.431 22.1178 133.166 22.3689C132.9 22.62 132.575 22.7486 132.191 22.7486H121.824C121.971 23.2202 122.19 23.6489 122.477 24.0378C122.765 24.4267 123.102 24.7605 123.493 25.0391C123.88 25.3178 124.309 25.5321 124.777 25.6883C125.243 25.8414 125.731 25.918 126.237 25.918C126.812 25.918 127.34 25.8322 127.821 25.6607C128.303 25.4893 128.747 25.232 129.156 24.8921C129.415 24.6778 129.719 24.5645 130.056 24.5553ZM130.647 20.0815C130.5 19.6099 130.278 19.1812 129.987 18.7923C129.694 18.4034 129.353 18.0697 128.965 17.791C128.578 17.5124 128.15 17.298 127.684 17.1418C127.218 16.9887 126.734 16.9122 126.237 16.9122C125.74 16.9122 125.256 16.9887 124.784 17.1418C124.312 17.2949 123.88 17.5124 123.487 17.791C123.093 18.0697 122.752 18.4034 122.465 18.7923C122.177 19.1812 121.962 19.6099 121.824 20.0815H130.647Z" fill="white"/>
<path d="M138.382 15.5526C139.541 14.6707 140.907 14.2328 142.479 14.2328C143.395 14.2328 144.267 14.4073 145.092 14.7595C145.917 15.1116 146.642 15.5863 147.27 16.1895C147.898 16.7928 148.395 17.5032 148.761 18.3177C149.127 19.1353 149.311 20.0049 149.311 20.9267V27.25C149.311 27.6266 149.177 27.9451 148.911 28.2054C148.645 28.4657 148.324 28.5973 147.948 28.5973C147.564 28.5973 147.239 28.4657 146.973 28.2054C146.708 27.9451 146.573 27.6266 146.573 27.25V20.9267C146.573 20.3785 146.464 19.861 146.245 19.3741C146.026 18.8873 145.733 18.4616 145.361 18.0972C144.989 17.7328 144.558 17.445 144.057 17.2306C143.561 17.0163 143.032 16.9091 142.473 16.9091C141.904 16.9091 141.376 17.0132 140.882 17.2245C140.388 17.4327 139.954 17.7236 139.579 18.0911C139.204 18.4586 138.91 18.8873 138.694 19.3741C138.482 19.861 138.373 20.3785 138.373 20.9267V27.25C138.373 27.6266 138.238 27.9451 137.973 28.2054C137.707 28.4657 137.385 28.5973 137.01 28.5973C136.625 28.5973 136.3 28.4657 136.035 28.2054C135.769 27.9451 135.635 27.6266 135.635 27.25V15.5771C135.635 15.2096 135.769 14.8942 136.035 14.6278C136.3 14.3614 136.625 14.2297 137.01 14.2297C137.385 14.2297 137.707 14.3614 137.973 14.6278C138.251 14.8942 138.382 15.2035 138.382 15.5526Z" fill="white"/>
<path d="M159.94 16.2295L159.931 16.2386C159.599 16.5479 159.068 16.5663 158.69 16.2999C157.846 15.7028 157.018 15.4057 156.205 15.4057C155.558 15.4057 155.005 15.5986 154.546 15.9814C154.086 16.3672 153.855 16.8143 153.855 17.3288C153.855 17.782 154.046 18.2137 154.424 18.6241C154.805 19.0436 155.602 19.5335 156.815 20.097C158.296 20.789 159.303 21.4565 159.834 22.0965C160.356 22.7457 160.618 23.4776 160.618 24.289C160.618 25.4343 160.171 26.405 159.281 27.1981C158.39 27.9942 157.274 28.3893 155.937 28.3893C155.046 28.3893 154.193 28.2147 153.383 27.8626C152.88 27.6452 152.433 27.3788 152.039 27.0603C151.639 26.7388 151.592 26.1876 151.949 25.8232C152.292 25.471 152.893 25.422 153.286 25.7283C154.105 26.3652 154.961 26.6836 155.855 26.6836C156.652 26.6836 157.33 26.454 157.89 25.9916C158.449 25.5292 158.731 24.9872 158.731 24.3625C158.731 23.8512 158.546 23.3918 158.174 22.9907C157.806 22.5987 156.968 22.1027 155.668 21.5025C154.274 20.8533 153.324 20.2133 152.821 19.5794C152.317 18.9486 152.067 18.226 152.067 17.4145C152.067 16.355 152.467 15.4762 153.271 14.7749C154.071 14.0737 155.083 13.7246 156.308 13.7246C157.48 13.7246 158.656 14.1502 159.84 15.0015C160.265 15.3077 160.318 15.8742 159.94 16.2295Z" fill="white"/>
<path d="M155.94 28.7597C154.999 28.7597 154.09 28.5729 153.233 28.2024C152.702 27.9727 152.221 27.6849 151.799 27.345C151.517 27.1184 151.352 26.8061 151.333 26.4631C151.311 26.1293 151.433 25.8109 151.677 25.5628C152.155 25.0729 152.983 25.0116 153.524 25.4342C154.271 26.016 155.055 26.31 155.855 26.31C156.568 26.31 157.152 26.111 157.646 25.7037C158.121 25.3117 158.353 24.8738 158.353 24.3594C158.353 23.9368 158.203 23.5724 157.896 23.2356C157.668 22.9937 157.068 22.5527 155.512 21.8362C154.046 21.1533 153.071 20.4888 152.527 19.806C151.974 19.1109 151.692 18.3055 151.692 17.4114C151.692 16.2478 152.139 15.2648 153.021 14.4931C153.89 13.7337 154.996 13.3479 156.312 13.3479C157.559 13.3479 158.821 13.8011 160.065 14.6952C160.365 14.9127 160.55 15.2342 160.575 15.5833C160.596 15.9201 160.462 16.2539 160.206 16.4927L160.196 16.4989C159.74 16.9245 158.999 16.9643 158.471 16.5938C157.699 16.0487 156.937 15.7701 156.209 15.7701C155.652 15.7701 155.19 15.9293 154.796 16.2569C154.421 16.5693 154.24 16.9184 154.24 17.3195C154.24 17.6808 154.393 18.0207 154.712 18.3637C155.058 18.7434 155.821 19.2119 156.984 19.7509C158.531 20.4735 159.559 21.1595 160.134 21.8515C160.712 22.5711 161.003 23.3856 161.003 24.2767C161.003 25.5261 160.512 26.5978 159.54 27.4614C158.578 28.3249 157.368 28.7597 155.94 28.7597ZM152.677 25.8966C152.508 25.8966 152.339 25.9578 152.221 26.0803C152.127 26.1753 152.08 26.2977 152.086 26.4233C152.096 26.555 152.161 26.6805 152.277 26.7754C152.643 27.0725 153.068 27.3236 153.533 27.5257C154.293 27.8533 155.099 28.0187 155.934 28.0187C157.184 28.0187 158.193 27.6604 159.021 26.9224C159.837 26.1936 160.234 25.3332 160.234 24.2859C160.234 23.5541 160.006 22.911 159.531 22.3231C159.04 21.7321 158.071 21.0951 156.646 20.4276C155.374 19.8366 154.552 19.3252 154.133 18.8659C153.693 18.3882 153.468 17.8707 153.468 17.3256C153.468 16.701 153.746 16.1528 154.293 15.6966C154.821 15.2556 155.462 15.0321 156.199 15.0321C157.09 15.0321 157.999 15.3567 158.906 15.9967C159.14 16.1651 159.468 16.1498 159.662 15.9691L159.671 15.9599C159.768 15.8711 159.815 15.7548 159.809 15.6353C159.8 15.5037 159.731 15.3873 159.609 15.2985C158.496 14.4993 157.384 14.0951 156.302 14.0951C155.165 14.0951 154.252 14.4074 153.518 15.0535C152.793 15.6874 152.443 16.459 152.443 17.4175C152.443 18.1524 152.664 18.7863 153.118 19.3558C153.58 19.9377 154.493 20.5501 155.827 21.1717C157.184 21.7964 158.043 22.3108 158.449 22.7426C158.887 23.2172 159.106 23.7623 159.106 24.3655C159.106 25.1004 158.778 25.7435 158.131 26.2763C157.502 26.7938 156.737 27.0541 155.852 27.0541C154.874 27.0541 153.93 26.705 153.049 26.016C152.946 25.9364 152.811 25.8966 152.677 25.8966Z" fill="white"/>
<path d="M115.896 19.6374C115.133 18.7188 113.755 17.8001 111.68 16.8294C110.089 16.0914 109.042 15.4484 108.564 14.9217C108.11 14.4318 107.892 13.9418 107.892 13.4212C107.892 12.8364 108.154 12.3342 108.692 11.884C109.248 11.4186 109.904 11.192 110.692 11.192C111.705 11.192 112.761 11.5748 113.83 12.3311C114.489 12.7966 115.42 12.7476 115.992 12.2148L116.002 12.2056C116.321 11.9085 116.489 11.4982 116.461 11.0787C116.433 10.6469 116.202 10.2427 115.827 9.97327C114.167 8.77903 112.483 8.17578 110.823 8.17578C109.079 8.17578 107.614 8.68716 106.46 9.69155C105.298 10.7082 104.707 12.0035 104.707 13.5407C104.707 14.7196 105.076 15.7822 105.807 16.7008C106.529 17.6103 107.835 18.4952 109.798 19.4108C111.504 20.1947 112.605 20.8439 113.067 21.3339C113.508 21.8116 113.72 22.3352 113.72 22.9415C113.72 23.6764 113.392 24.3041 112.717 24.8584C112.023 25.431 111.201 25.7066 110.208 25.7066C109.092 25.7066 108.001 25.2993 106.967 24.494C106.288 23.9673 105.251 24.0408 104.648 24.6563C104.348 24.9625 104.194 25.3606 104.219 25.774C104.244 26.1996 104.451 26.5885 104.801 26.8733C105.36 27.3234 106.001 27.7062 106.71 28.0124C107.851 28.5054 109.067 28.7565 110.317 28.7565C112.214 28.7565 113.823 28.1808 115.095 27.0478C116.38 25.9026 117.03 24.4879 117.03 22.8374C117.039 21.6584 116.655 20.5836 115.896 19.6374Z" fill="white"/>
<path d="M110.326 28.8361C109.064 28.8361 107.838 28.5851 106.685 28.0859C105.969 27.7766 105.323 27.3908 104.76 26.9345C104.394 26.6375 104.176 26.2272 104.151 25.7832C104.126 25.3484 104.282 24.9288 104.597 24.6073C105.226 23.9643 106.313 23.8877 107.02 24.4358C108.038 25.2289 109.114 25.6331 110.21 25.6331C111.189 25.6331 111.992 25.3606 112.67 24.8002C113.326 24.2613 113.645 23.6519 113.645 22.9415C113.645 22.3566 113.439 21.8483 113.011 21.3859C112.554 20.9021 111.464 20.2591 109.767 19.4782C107.792 18.5596 106.479 17.6654 105.748 16.7468C105.007 15.8159 104.632 14.7349 104.632 13.5407C104.632 11.979 105.229 10.6653 106.41 9.63339C107.576 8.6137 109.064 8.09619 110.826 8.09619C112.501 8.09619 114.202 8.70556 115.874 9.90899C116.267 10.1907 116.508 10.6133 116.539 11.0695C116.567 11.5105 116.392 11.9423 116.058 12.2546L116.049 12.2638C115.448 12.8242 114.477 12.8762 113.786 12.3893C112.729 11.6422 111.689 11.2655 110.692 11.2655C109.923 11.2655 109.285 11.486 108.742 11.9392C108.22 12.374 107.967 12.8578 107.967 13.4182C107.967 13.9204 108.179 14.395 108.62 14.8697C109.092 15.3902 110.132 16.0272 111.714 16.759C113.798 17.7328 115.186 18.6576 115.955 19.5854C116.724 20.5438 117.114 21.637 117.114 22.8313C117.114 24.5032 116.455 25.9394 115.155 27.0999C113.87 28.2543 112.245 28.8361 110.326 28.8361ZM105.916 24.2215C105.473 24.2215 105.029 24.3899 104.713 24.7145C104.429 25.0054 104.285 25.3851 104.307 25.7771C104.332 26.1813 104.529 26.5518 104.86 26.8213C105.413 27.2683 106.051 27.648 106.751 27.9512C107.882 28.4411 109.085 28.6861 110.326 28.6861C112.204 28.6861 113.795 28.1165 115.052 26.9958C116.317 25.8659 116.961 24.4695 116.961 22.8405C116.961 21.6799 116.583 20.6204 115.833 19.6895C115.077 18.78 113.708 17.8675 111.645 16.9029C110.045 16.1588 108.989 15.5127 108.504 14.9768C108.038 14.4747 107.813 13.9663 107.813 13.4243C107.813 12.815 108.085 12.2944 108.642 11.829C109.214 11.3513 109.885 11.1185 110.692 11.1185C111.72 11.1185 112.792 11.5074 113.876 12.273C114.508 12.717 115.395 12.671 115.939 12.1627L115.949 12.1535C116.252 11.8718 116.411 11.4829 116.383 11.0879C116.355 10.6776 116.136 10.2948 115.783 10.0407C114.136 8.85867 112.47 8.25849 110.826 8.25849C109.104 8.25849 107.654 8.76374 106.516 9.75588C105.369 10.7572 104.791 12.0341 104.791 13.5499C104.791 14.7104 105.157 15.7577 105.876 16.661C106.591 17.5613 107.888 18.4401 109.839 19.3496C111.554 20.1396 112.661 20.7919 113.133 21.291C113.586 21.784 113.808 22.326 113.808 22.9507C113.808 23.7101 113.47 24.3562 112.779 24.9258C112.07 25.5106 111.232 25.7924 110.22 25.7924C109.085 25.7924 107.979 25.379 106.932 24.5614C106.635 24.3317 106.276 24.2215 105.916 24.2215Z" fill="white"/>
</svg>
